# xmcd
#
# Track frame offsets:
#	150
#	18340
#	37270
#	54352
#	75087
#	88575
#	105550
#	127670
#	143887
#	162525
#
# Disc length: 2384 seconds
#
# Revision: 1
# Processed by: cddbd v1.5.2PL0 Copyright (c) Steve Scherf et al.
# Submitted via: audiograbber 1.81.03
#
DISCID=72094e0a
DTITLE=Billy`Gibson Band - Southern Living
DYEAR=2006
DGENRE=Blues
TTITLE0=Fireman
TTITLE1=Mississippi
TTITLE2=I'm Single
TTITLE3=Too Many Times
TTITLE4=More
TTITLE5=Hey Hey Pretty Baby
TTITLE6=I Got A Thing For The Voodoo Woman
TTITLE7=Slowly But Surely
TTITLE8=Hip Hug Her
TTITLE9=Sex Appeal
EXTD=Billy Gibson Band - Southern Livin'
EXTT0=
EXTT1=
EXTT2=
EXTT3=
EXTT4=
EXTT5=
EXTT6=
EXTT7=
EXTT8=
EXTT9=
PLAYORDER=
